<svg xmlns="http://www.w3.org/2000/svg" width="512" height="512" viewBox="0 0 512 512">
  <defs>
    <linearGradient id="bg" x1="0" y1="0" x2="1" y2="1">
      <stop offset="0" stop-color="#5b8cff"/>
      <stop offset="0.52" stop-color="#37a7c6"/>
      <stop offset="1" stop-color="#33d08f"/>
    </linearGradient>
    <radialGradient id="glow" cx="0.26" cy="0.2" r="0.95">
      <stop offset="0" stop-color="#ffffff" stop-opacity="0.4"/>
      <stop offset="0.55" stop-color="#ffffff" stop-opacity="0"/>
    </radialGradient>
    <radialGradient id="shade" cx="0.82" cy="0.92" r="0.85">
      <stop offset="0" stop-color="#05132a" stop-opacity="0.22"/>
      <stop offset="0.65" stop-color="#05132a" stop-opacity="0"/>
    </radialGradient>
    <linearGradient id="check" x1="0" y1="0" x2="1" y2="1">
      <stop offset="0" stop-color="#37e08a"/>
      <stop offset="1" stop-color="#16ab63"/>
    </linearGradient>
    <linearGradient id="card" x1="0" y1="0" x2="0" y2="1">
      <stop offset="0" stop-color="#ffffff"/>
      <stop offset="1" stop-color="#eef3fb"/>
    </linearGradient>
  </defs>

  <rect width="512" height="512" fill="url(#bg)"/>
  <rect width="512" height="512" fill="url(#glow)"/>
  <rect width="512" height="512" fill="url(#shade)"/>

  <!-- kanban board scaled into the maskable safe zone (centre ~80%) -->
  <g transform="translate(256 256) scale(0.82) translate(-256 -256)">
    <rect x="44" y="104" width="128" height="304" rx="26" fill="#ffffff" opacity="0.15"/>
    <rect x="192" y="104" width="128" height="304" rx="26" fill="#ffffff" opacity="0.15"/>
    <rect x="340" y="104" width="128" height="304" rx="26" fill="#ffffff" opacity="0.15"/>

    <circle cx="74" cy="142" r="10" fill="#cdd6ec"/>
    <rect x="92" y="136" width="58" height="12" rx="6" fill="#ffffff" opacity="0.55"/>
    <circle cx="222" cy="142" r="10" fill="#9ec1ff"/>
    <rect x="240" y="136" width="58" height="12" rx="6" fill="#ffffff" opacity="0.55"/>
    <circle cx="370" cy="142" r="10" fill="#7ff0c0"/>
    <rect x="388" y="136" width="58" height="12" rx="6" fill="#ffffff" opacity="0.55"/>

    <rect x="58" y="178" width="100" height="80" rx="16" fill="url(#card)"/>
    <rect x="74" y="200" width="66" height="12" rx="6" fill="#16213c" opacity="0.82"/>
    <rect x="74" y="222" width="44" height="10" rx="5" fill="#16213c" opacity="0.3"/>
    <rect x="58" y="276" width="100" height="80" rx="16" fill="url(#card)"/>
    <rect x="74" y="298" width="60" height="12" rx="6" fill="#16213c" opacity="0.82"/>
    <rect x="74" y="320" width="40" height="10" rx="5" fill="#16213c" opacity="0.3"/>

    <rect x="206" y="178" width="100" height="150" rx="16" fill="url(#card)"/>
    <rect x="222" y="198" width="40" height="14" rx="7" fill="#5b8cff"/>
    <rect x="222" y="226" width="68" height="12" rx="6" fill="#16213c" opacity="0.82"/>
    <rect x="222" y="248" width="52" height="10" rx="5" fill="#16213c" opacity="0.3"/>
    <rect x="222" y="296" width="68" height="10" rx="5" fill="#e3e9f4"/>
    <rect x="222" y="296" width="40" height="10" rx="5" fill="#5b8cff"/>

    <rect x="354" y="178" width="100" height="80" rx="16" fill="url(#card)"/>
    <circle cx="384" cy="218" r="17" fill="url(#check)"/>
    <path d="M375 218 l6 6 l12 -13" fill="none" stroke="#ffffff" stroke-width="6" stroke-linecap="round" stroke-linejoin="round"/>
    <rect x="410" y="212" width="34" height="12" rx="6" fill="#16213c" opacity="0.5"/>
    <rect x="354" y="276" width="100" height="64" rx="16" fill="url(#card)" opacity="0.55"/>
  </g>
</svg>
